<?xml version="1.0" encoding="utf-8"?>
<!-- Generator: Adobe Illustrator 28.1.0, SVG Export Plug-In . SVG Version: 6.00 Build 0)  -->
<svg version="1.1" id="Layer_1" xmlns="http://www.w3.org/2000/svg" xmlns:xlink="http://www.w3.org/1999/xlink" x="0px" y="0px"
	 viewBox="0 0 439 500" style="enable-background:new 0 0 439 500;" xml:space="preserve">
<style type="text/css">
	.st0{fill-rule:evenodd;clip-rule:evenodd;fill:#FFFFFF;}
</style>
<path class="st0" d="M135.9,47.9c-45,26.2-94,54.7-108.8,63.2L0,126.5v125.1c0,112.2,0.4,125.3,4,126.7c2.2,0.8,28.5,15.8,58.5,33.3
	c30,17.4,76.9,44.7,104.3,60.7c31.9,18.5,51.5,28.5,54.5,27.7c4.3-1.1,33.9-17.9,170.7-96.8l45.9-26.5V276.3
	c0-55.2-0.6-100.3-1.3-100.3c-0.7,0-5.8,2.8-11.3,6.3l-10,6.3l0,87.4l0,87.4l-25.8,14.9c-14.2,8.2-36.5,21.1-49.7,28.8
	c-31,18-57.8,33.6-90.8,52.8c-31.8,18.6-28.5,18.4-53.7,3.6c-11.2-6.6-54.3-31.4-95.9-55.1l-75.5-43.1l-0.7-113.4l-0.7-113.4
	l8.2-4.2c4.5-2.3,25.2-14,46-26.1c121.4-70.2,139.7-80.6,142.1-80.6c2.3,0,79.2,43.6,135.4,76.6l14.3,8.4l9.3-4.7
	c5.1-2.6,10-5.8,10.7-7.1C389.8,99,221.4-0.7,218.4,0C218,0.1,180.9,21.6,135.9,47.9z M402,119c-9.2,5.2-9.4,5.8-9.4,19.9l0,14.5
	l11,5.4l11,5.4l11-6.1c10.5-5.8,11-6.6,11.7-18.9l0.8-12.9l-11.8-6.6C412.7,112,414.2,112.1,402,119z M133.4,159.6V176h56.7
	c57.6,0,68.8,1.5,77.4,10.6c19,19.9,15,50.4-8.3,62.7c-7.8,4.2-15.2,4.7-67.3,4.7h-58.6v55.4v55.4h16.4h16.4v-38.8v-38.8l48.4-0.8
	c44.3-0.8,49.3-1.3,58.8-6.4c44-23.5,53.2-79.6,18.7-114.2c-21.2-21.2-26.6-22.5-98.7-22.5h-59.9V159.6z M259.8,307.5
	c-16.1,3.1-16.1,1.6,0.3,30.1l13.5,23.4l19.5,0.7l19.5,0.7l-8.2-14.6c-17.7-31.6-25.5-43.5-28.4-43.2
	C274.4,304.9,267.1,306.2,259.8,307.5z"/>
</svg>
